<svg id="Layer_1" data-name="Layer 1" xmlns="http://www.w3.org/2000/svg" xmlns:xlink="http://www.w3.org/1999/xlink" width="2.4187in" height="2.4187in" viewBox="0 0 174.1462 174.1444"><defs><style>.cls-1{fill:url(#linear-gradient);}.cls-2{fill:#fff;}.cls-3{opacity:0.6;}.cls-4{fill:url(#linear-gradient-2);}.cls-5{fill:url(#linear-gradient-3);}.cls-6{fill:url(#linear-gradient-4);}.cls-7{fill:url(#linear-gradient-5);}</style><linearGradient id="linear-gradient" x1="87.0731" x2="87.0731" y2="174.1444" gradientUnits="userSpaceOnUse"><stop offset="0" stop-color="#005cff"/><stop offset="1" stop-color="#0047ad"/></linearGradient><linearGradient id="linear-gradient-2" x1="31.3594" y1="-9.4261" x2="142.7863" y2="183.571" gradientUnits="userSpaceOnUse"><stop offset="0.2247" stop-color="#fff" stop-opacity="0.3"/><stop offset="0.4011" stop-color="#fff" stop-opacity="0"/></linearGradient><linearGradient id="linear-gradient-3" x1="423.2239" y1="252.0989" x2="480.3072" y2="350.9701" xlink:href="#linear-gradient-2"/><linearGradient id="linear-gradient-4" x1="521.096" y1="284.1128" x2="559.4585" y2="350.5586" xlink:href="#linear-gradient-2"/><linearGradient id="linear-gradient-5" x1="121.8105" y1="36.1544" x2="136.9686" y2="62.4089" xlink:href="#linear-gradient-2"/></defs><path class="cls-1" d="M20.5445,0H153.6007a20.5455,20.5455,0,0,1,20.5455,20.5455V153.5989a20.5455,20.5455,0,0,1-20.5455,20.5455H20.5455A20.5455,20.5455,0,0,1,0,153.5989V20.5445A20.5445,20.5445,0,0,1,20.5445,0Z"/><path class="cls-2" d="M481.9061,298.84s14.7811-1.098,14.7811-18.4321-12.0936-25.7937-27.4122-25.7937H418.868v96.8711h50.407s30.7716.97,30.7716-28.5922C500.0466,322.8927,501.39,298.84,481.9061,298.84ZM441.0784,271.83H469.275s6.8529,0,6.8529,10.0782-4.0313,11.5394-8.6,11.5394h-26.45Zm26.897,62.4379h-26.897V308.38H469.275s10.2123-.1341,10.2123,13.3028C479.4873,332.8868,472.0176,334.1559,467.9754,334.2683Z" transform="translate(-410.8411 -217.0039)"/><path class="cls-2" d="M541.0872,279.26c-37.252,0-37.2183,37.2185-37.2183,37.2185s-2.5564,37.0308,37.2194,37.0308c0,0,33.1472,1.8932,33.1472-25.76H557.188s.568,10.4162-15.5317,10.4162c0,0-17.0478,1.14-17.0478-16.8554h50.1949S580.295,279.26,541.0872,279.26ZM556.24,308.38H524.4187s2.0836-14.9322,17.0474-14.9322S556.24,308.38,556.24,308.38Z" transform="translate(-410.8411 -217.0039)"/><rect class="cls-2" x="109.4067" y="43.3157" width="39.9656" height="11.9319"/><g class="cls-3"><path class="cls-4" d="M20.5445,0H153.6007a20.5455,20.5455,0,0,1,20.5455,20.5455V153.5989a20.5455,20.5455,0,0,1-20.5455,20.5455H20.5455A20.5455,20.5455,0,0,1,0,153.5989V20.5445A20.5445,20.5445,0,0,1,20.5445,0Z"/><path class="cls-5" d="M481.9061,298.84s14.7811-1.098,14.7811-18.4321-12.0936-25.7937-27.4122-25.7937H418.868v96.8711h50.407s30.7716.97,30.7716-28.5922C500.0466,322.8927,501.39,298.84,481.9061,298.84ZM441.0784,271.83H469.275s6.8529,0,6.8529,10.0782-4.0313,11.5394-8.6,11.5394h-26.45Zm26.897,62.4379h-26.897V308.38H469.275s10.2123-.1341,10.2123,13.3028C479.4873,332.8868,472.0176,334.1559,467.9754,334.2683Z" transform="translate(-410.8411 -217.0039)"/><path class="cls-6" d="M541.0872,279.26c-37.252,0-37.2183,37.2185-37.2183,37.2185s-2.5564,37.0308,37.2194,37.0308c0,0,33.1472,1.8932,33.1472-25.76H557.188s.568,10.4162-15.5317,10.4162c0,0-17.0478,1.14-17.0478-16.8554h50.1949S580.295,279.26,541.0872,279.26ZM556.24,308.38H524.4187s2.0836-14.9322,17.0474-14.9322S556.24,308.38,556.24,308.38Z" transform="translate(-410.8411 -217.0039)"/><rect class="cls-7" x="109.4067" y="43.3157" width="39.9656" height="11.9319"/></g></svg>