<svg id="Layer_1" data-name="Layer 1" xmlns="http://www.w3.org/2000/svg" width="2.388in" height="2.4162in" viewBox="0 0 171.9346 173.9697"><defs><style>.cls-1{fill:#069;}.cls-2{fill:#fff;}</style></defs><path class="cls-1" d="M585.1592,373.582a17.3614,17.3614,0,0,1-17.334,17.3916H430.5586a17.3614,17.3614,0,0,1-17.334-17.3916V234.396a17.3618,17.3618,0,0,1,17.334-17.3921H567.8252a17.3618,17.3618,0,0,1,17.334,17.3921Z" transform="translate(-413.2246 -217.0039)"/><path class="cls-2" d="M469.1543,259.5415c0,6.39-4.7178,11.5654-12.4785,11.5654-7.3037,0-12.0215-5.1753-12.0215-11.5654,0-6.5435,4.8691-11.5654,12.3252-11.5654S469.0029,252.998,469.1543,259.5415Zm-23.8916,95.1147V280.2383h23.1318v74.4179Z" transform="translate(-413.2246 -217.0039)"/><path class="cls-2" d="M482.2383,303.978c0-9.2822-.3037-17.0425-.6074-23.74h20.0869l1.0664,10.3486h.456c3.043-4.8711,10.501-12.0234,22.98-12.0234,15.2188,0,26.6309,10.1977,26.6309,32.1113v43.9814H529.7207V313.4141c0-9.587-3.35-16.13-11.72-16.13-6.3916,0-10.1944,4.4131-11.8692,8.6733a16.6667,16.6667,0,0,0-.7627,5.7842v42.915H482.2383Z" transform="translate(-413.2246 -217.0039)"/></svg>