<svg id="Layer_1" data-name="Layer 1" xmlns="http://www.w3.org/2000/svg" width="2.4209in" height="1.9675in" viewBox="0 0 174.3023 141.6574"><defs><style>.cls-1{fill:#1da1f2;}</style></defs><path class="cls-1" d="M465.4417,374.9048c65.7775,0,101.7473-54.4941,101.7473-101.7473,0-1.55-.031-3.091-.1022-4.6231a72.7857,72.7857,0,0,0,17.84-18.5164,71.4015,71.4015,0,0,1-20.5363,5.63,35.883,35.883,0,0,0,15.7237-19.7824,71.667,71.667,0,0,1-22.7067,8.68,35.7911,35.7911,0,0,0-60.9409,32.614,101.5246,101.5246,0,0,1-73.7107-37.3634,35.789,35.789,0,0,0,11.07,47.7411,35.49,35.49,0,0,1-16.1955-4.4739c-.0081.1492-.0081.3-.0081.457a35.7758,35.7758,0,0,0,28.69,35.0585,35.702,35.702,0,0,1-16.15.6128A35.8006,35.8006,0,0,0,463.5709,344.03,71.7643,71.7643,0,0,1,419.156,359.337a72.9807,72.9807,0,0,1-8.5311-.4946,101.2385,101.2385,0,0,0,54.8168,16.0624" transform="translate(-410.6249 -233.2474)"/></svg>